<?xml version="1.0" encoding="UTF-8" standalone="no"?>
<!-- Created with Inkscape (http://www.inkscape.org/) -->

<svg
   xmlns:dc="http://purl.org/dc/elements/1.1/"
   xmlns:cc="http://creativecommons.org/ns#"
   xmlns:rdf="http://www.w3.org/1999/02/22-rdf-syntax-ns#"
   xmlns:svg="http://www.w3.org/2000/svg"
   xmlns="http://www.w3.org/2000/svg"
   xmlns:sodipodi="http://sodipodi.sourceforge.net/DTD/sodipodi-0.dtd"
   xmlns:inkscape="http://www.inkscape.org/namespaces/inkscape"
   width="20.765572mm"
   height="20.765701mm"
   viewBox="0 0 20.765572 20.765701"
   version="1.1"
   id="svg8"
   inkscape:version="0.92.4 (5da689c313, 2019-01-14)"
   sodipodi:docname="rysunek2.svg">
  <defs
     id="defs2" />
  <sodipodi:namedview
     id="base"
     pagecolor="#ffffff"
     bordercolor="#666666"
     borderopacity="1.0"
     inkscape:pageopacity="0.0"
     inkscape:pageshadow="2"
     inkscape:zoom="0.25"
     inkscape:cx="375.99049"
     inkscape:cy="-23.365433"
     inkscape:document-units="mm"
     inkscape:current-layer="layer1"
     showgrid="false"
     showguides="false"
     inkscape:window-width="1920"
     inkscape:window-height="1017"
     inkscape:window-x="-8"
     inkscape:window-y="-8"
     inkscape:window-maximized="1" />
  <metadata
     id="metadata5">
    <rdf:RDF>
      <cc:Work
         rdf:about="">
        <dc:format>image/svg+xml</dc:format>
        <dc:type
           rdf:resource="http://purl.org/dc/dcmitype/StillImage" />
        <dc:title></dc:title>
      </cc:Work>
    </rdf:RDF>
  </metadata>
  <g
     inkscape:label="Layer 1"
     inkscape:groupmode="layer"
     id="layer1"
     transform="translate(-160.16025,-135.17932)">
    <path
       style="fill:#000000;stroke:#000000;stroke-width:0;stroke-linejoin:round;stroke-miterlimit:4;stroke-dasharray:none;stroke-opacity:1"
       d="m 170.54206,135.17932 a 2.5780409,10.382796 0 0 0 -1.70706,2.62834 10.382796,2.5780409 67.5 0 1 3.30625,6.01708 10.382796,2.5780409 45 0 0 -0.36749,-0.37664 10.382796,2.5780409 45 0 0 -6.35315,-5.00907 10.382796,2.5780409 45 0 0 -2.21673,-0.21854 10.382796,2.5780409 45 0 0 2.01134,5.13528 10.382796,2.5780409 0 0 0 -5.05497,2.20946 10.382796,2.5780409 0 0 0 2.34458,1.62241 2.5780409,10.382796 67.5 0 1 6.53232,-3.70297 2.5780409,10.382796 45 0 0 -0.37667,0.36752 2.5780409,10.382796 45 0 0 -4.96349,6.27203 2.5780409,10.382796 45 0 0 -0.49571,2.77909 2.5780409,10.382796 45 0 0 5.13197,-2.00902 2.5780409,10.382796 0 0 0 2.20881,5.05073 2.5780409,10.382796 0 0 0 1.61736,-2.32026 10.382796,2.5780409 67.5 0 1 -3.74804,-6.58641 10.382796,2.5780409 45 0 0 0.36748,0.37667 10.382796,2.5780409 45 0 0 5.7307,4.65579 10.382796,2.5780409 45 0 0 0.0922,0.0553 10.382796,2.5780409 45 0 0 0.42471,0.23869 10.382796,2.5780409 45 0 0 2.86094,0.53917 10.382796,2.5780409 45 0 0 -2.00782,-5.1305 10.382796,2.5780409 0 0 0 5.04623,-2.20826 10.382796,2.5780409 0 0 0 -2.32433,-1.61585 2.5780409,10.382796 67.5 0 1 -6.57999,3.74271 2.5780409,10.382796 45 0 0 0.37664,-0.36749 2.5780409,10.382796 45 0 0 4.65251,-5.72533 2.5780409,10.382796 45 0 0 0.0604,-0.10074 2.5780409,10.382796 45 0 0 0.22912,-0.40764 2.5780409,10.382796 45 0 0 0.54464,-2.87101 2.5780409,10.382796 45 0 0 -5.13374,2.01038 2.5780409,10.382796 0 0 0 -2.20895,-5.05073 z"
       id="path815-4-7"
       inkscape:connector-curvature="0" />
  </g>
</svg>
